<svg width="35" height="37" viewBox="0 0 35 37" fill="none" xmlns="http://www.w3.org/2000/svg">
<path d="M10.5735 24.1568C9.52143 24.1524 8.62255 23.8749 7.87681 23.3245C7.13107 22.7741 6.56067 21.9729 6.16561 20.9208C5.77055 19.8688 5.57301 18.6015 5.57301 17.1189C5.57301 15.6407 5.77055 14.3779 6.16561 13.3303C6.56511 12.2827 7.13773 11.4837 7.88347 10.9333C8.63365 10.3828 9.53031 10.1076 10.5735 10.1076C11.6166 10.1076 12.511 10.3851 13.2568 10.9399C14.0025 11.4903 14.5729 12.2894 14.968 13.3369C15.3675 14.3801 15.5672 15.6407 15.5672 17.1189C15.5672 18.6059 15.3697 19.8755 14.9746 20.9275C14.5796 21.9751 14.0092 22.7763 13.2634 23.3312C12.5177 23.8816 11.621 24.1568 10.5735 24.1568ZM10.5735 22.379C11.4968 22.379 12.2181 21.9285 12.7374 21.0274C13.2612 20.1263 13.5231 18.8234 13.5231 17.1189C13.5231 15.987 13.4033 15.0304 13.1636 14.2491C12.9283 13.4634 12.5887 12.8686 12.1448 12.4647C11.7054 12.0563 11.1816 11.8521 10.5735 11.8521C9.6546 11.8521 8.93328 12.3049 8.40948 13.2104C7.88569 14.116 7.62158 15.4188 7.61714 17.1189C7.61714 18.2553 7.73477 19.2163 7.97003 20.002C8.20973 20.7832 8.54931 21.3758 8.98876 21.7798C9.42822 22.1793 9.95645 22.379 10.5735 22.379ZM17.243 21.2671V19.6025L23.1357 10.2941H24.4474V12.7443H23.6151L19.4003 19.416V19.5226H27.4769V21.2671H17.243ZM23.7083 23.9304V20.761L23.7216 20.002V10.2941H25.6725V23.9304H23.7083Z" fill="black"/>
<path d="M9.55151 7.50483C9.10324 7.92562 8.48816 8.4529 8.0157 8.85031C7.86925 8.97355 7.92361 8.88924 7.82244 8.97294C7.62058 9.14039 7.45338 9.30889 7.25461 9.47364C7.18879 9.52806 7.23884 9.42547 7.17054 9.48323C6.79951 9.79752 6.46989 10.1197 6.11317 10.4552C4.3439 12.095 2.89439 14.0096 2.16312 16.3307C1.91176 17.0924 1.66465 18.0346 1.55721 18.8622C1.54467 18.9579 1.58977 18.9065 1.59002 18.9251C1.59391 19.218 1.53434 19.1122 1.49872 19.3019C1.36161 20.0346 1.29051 20.8726 1.27112 21.6052C1.26355 21.9129 1.34976 21.6077 1.29637 21.913C1.29278 21.9343 1.2566 21.8554 1.24927 21.9392C1.23244 22.1269 1.22952 22.5063 1.2242 22.6478C1.21319 22.9313 1.21315 22.9792 1.21126 23.2554C1.20762 23.6389 1.19642 24.0684 1.23168 24.4648C1.23935 24.549 1.27161 24.4351 1.28791 24.5684C1.30338 24.7018 1.33426 25.0551 1.34031 25.1746C1.34549 25.2944 1.30814 25.2479 1.30359 25.2699C1.26357 25.4517 1.41452 25.8459 1.42742 25.8962C1.6393 26.8335 1.8546 27.6316 2.23367 28.4554C2.51996 29.0776 2.91243 29.7153 3.24446 30.284C3.64497 30.9567 3.99643 31.52 4.51272 32.0617C4.56743 32.1184 4.53764 32.0195 4.60446 32.0878C5.30515 32.8298 6.23235 33.2627 7.14633 33.7926C7.23806 33.8447 7.09832 33.8177 7.18914 33.8722C7.73981 34.2048 8.61607 34.733 9.03775 34.7247C9.4272 34.9126 9.90599 35.1229 10.2547 35.2898C10.4792 35.3965 10.238 35.3588 10.5322 35.4411C10.5991 35.4593 10.5268 35.3932 10.6257 35.4228C11.0408 35.5464 11.4921 35.6811 11.9102 35.7173C11.9961 35.7244 11.9768 35.6859 12.0016 35.6825C12.2134 35.6545 12.5549 35.7764 12.6296 35.7902C13.2033 35.8958 13.6279 35.9169 14.1678 35.9623C14.2929 35.9728 14.1488 35.9134 14.2693 35.9217C14.8947 35.965 15.5417 36.011 16.1535 36.0607C16.2896 36.0718 16.1624 36.1065 16.2273 36.1138C16.5141 36.1453 16.5806 36.0713 16.8557 36.097C16.9137 36.1023 16.8798 36.1359 16.8903 36.14C17.0546 36.205 17.201 36.1239 17.2438 36.123C17.7837 36.1096 18.128 36.2006 18.6503 36.183C18.7127 36.1807 18.5716 36.1386 18.7467 36.1346C19.9141 36.1068 21.1454 36.0425 22.2916 35.9092C22.4695 35.8882 22.348 35.9396 22.3597 35.942C22.5506 35.9775 22.6565 35.8733 22.7131 35.8606C23.163 35.7615 23.601 35.7398 23.8798 35.5666C25.7331 35.0505 27.6924 34.5303 29.2189 33.3735C29.2382 33.3587 29.2316 33.4189 29.2701 33.3891C29.7296 33.0185 29.5983 33.0395 29.8075 32.7071C29.8585 32.6248 30.1251 32.464 30.1477 32.4464C30.23 32.388 30.2132 32.5057 30.2381 32.4837C30.438 32.3012 30.2521 32.2074 30.4644 31.922C30.4713 31.9132 30.4745 31.9729 30.4951 31.9512C30.5591 31.8841 30.6031 31.7964 30.6651 31.7302C30.8092 31.5748 30.9346 31.5665 31.0644 31.2614C31.0797 31.2236 30.9485 31.2129 31.1275 30.9442C31.2021 30.8334 31.4998 30.3534 31.5903 30.2175C31.6796 30.0853 31.6549 30.1984 31.6623 30.1894C31.9281 29.8456 31.8601 29.9977 32.035 29.8475C32.2083 29.698 32.0262 29.6615 32.0539 29.5753C32.0824 29.488 32.2748 29.2345 32.3249 29.1741C32.3754 29.1135 32.3487 29.2097 32.3897 29.1534C32.6602 28.7769 32.4115 28.9353 32.4602 28.7895C32.573 28.4463 32.8168 28.2624 32.9758 27.9775C33.0188 27.9002 32.9599 27.9512 32.9928 27.8797C33.1223 27.5974 33.241 27.4466 33.3555 27.1098C33.3745 27.0547 33.4202 26.7636 33.545 26.6166C33.5628 26.5958 33.5636 26.6771 33.622 26.5579C33.7093 26.3811 33.8486 26.0505 33.9104 25.8481C33.9564 25.698 33.8456 25.8488 33.9274 25.6686C33.9632 25.5886 33.9394 25.7519 34.004 25.6004C34.0697 25.4496 34.1924 25.049 34.231 24.8934C34.2707 24.7389 34.209 24.8133 34.2097 24.8001C34.2151 24.7223 34.2629 24.4226 34.2668 24.3969C34.5062 23.0955 34.4158 21.7919 34.4332 20.4682C34.432 20.3636 34.389 20.4331 34.3884 20.4171C34.372 20.0595 34.4844 20.3418 34.5232 20.0921C34.4364 20.128 34.4527 19.9802 34.4433 19.7285C34.4387 19.6069 34.4051 19.6732 34.4017 19.6621C34.3507 19.4826 34.416 19.3569 34.4294 19.3245C34.4785 19.2052 34.4193 19.0764 34.4518 18.9943C34.484 18.913 34.5342 19.099 34.5316 18.8577C34.4999 18.7899 34.4206 18.9706 34.4057 18.7869C34.3667 18.0918 34.3244 16.8234 34.2049 16.277C34.1041 15.7332 34.0529 15.5616 33.9861 15.2454C33.8595 14.6756 33.8546 14.8975 33.7304 14.5584C33.6024 14.2181 33.7932 14.3455 33.809 14.2862C33.8247 14.2278 33.7771 14.1835 33.7749 14.1171C33.7727 14.0509 33.8343 14.1767 33.7961 14.0312C33.7585 13.8854 33.5759 13.5124 33.5267 13.4734C33.4234 13.3901 33.4151 13.5874 33.3084 13.2071C33.3022 13.1851 33.3637 13.2416 33.3381 13.1582C33.1327 12.497 32.8609 11.8291 32.5792 11.1984C32.5403 11.1118 32.6169 11.1687 32.5944 11.1175C32.3559 10.5899 32.3842 10.8077 32.16 10.572C32.2872 10.5807 32.267 10.3918 32.0261 10.019C31.8793 9.79809 31.865 9.8632 31.7377 9.74477C31.6994 9.70883 31.6103 9.54305 31.5706 9.53102C31.4433 9.49288 31.4999 9.67915 31.2259 9.31971C31.2141 9.30406 31.2852 9.32446 31.2421 9.27228C30.9587 8.93079 30.8682 8.94257 30.5366 8.60049C30.2771 8.33232 29.8452 7.82706 29.5403 7.52988C29.6307 7.44778 29.3168 7.19173 29.139 7.14546C28.9364 6.95806 28.7079 6.76675 28.5101 6.58694C28.4421 6.52525 28.5109 6.53677 28.5044 6.52646C28.4052 6.36675 28.26 6.35431 28.2115 6.31931C27.6884 5.939 27.3017 5.57541 26.7636 5.26474C26.7443 5.25367 26.6667 5.30156 26.5679 5.15639C26.5614 5.14668 26.7511 5.23351 26.5142 5.06285C26.2793 4.89354 25.8526 4.54491 25.4945 4.35075C25.4097 4.30478 25.1657 4.22306 25.0303 4.06844C25.0122 4.04761 25.0498 4.04372 25.0253 4.01115C24.9444 3.90563 24.8436 3.94084 24.7595 3.80361C24.676 3.66703 24.4374 3.46009 24.0468 3.32362C24.0344 3.31918 23.9181 3.3369 23.8025 3.28212C23.6182 3.19404 23.3564 3.06708 23.1569 2.98943C23.0617 2.95229 23.1073 3.01525 23.0906 3.0095C22.4418 2.78484 21.9877 2.60297 21.2826 2.38635C21.1531 2.34642 20.7639 2.30008 20.5222 2.19149C20.2557 2.07245 20.5936 1.94427 19.9387 1.83193C19.6752 1.78705 19.2854 1.96131 18.8517 1.7182C17.9416 1.54727 17.1236 1.19936 16.1785 1.22871C16.1377 1.22913 16.0003 1.29801 15.9048 1.29643C15.7605 1.29376 15.6786 1.26102 15.5751 1.26102C15.1382 1.26121 14.7385 1.32277 14.3218 1.3663C14.1617 1.38367 14.2157 1.34127 14.0246 1.3643C13.8343 1.38804 13.7145 1.45197 13.4579 1.47097C13.2616 1.48593 13.0507 1.42668 12.7952 1.46478C12.8035 1.55857 12.6273 1.58948 12.3231 1.67967C12.2641 1.69721 12.3352 1.71522 12.3077 1.72516C12.1945 1.76667 12.0871 1.76288 11.9817 1.80556C11.9562 1.81586 11.962 1.84727 11.9416 1.85748C11.7692 1.94483 11.4514 1.94836 11.3983 1.94889C11.1912 1.9515 11.1052 2.01665 10.9518 2.03746C10.7967 2.05898 11.0158 1.97697 10.8368 2.01257C10.463 2.08719 9.99722 2.22471 9.62997 2.33346C9.48322 2.3771 9.59553 2.38788 9.57482 2.39508C9.27242 2.49729 8.95261 2.55067 8.81377 2.6843C8.5391 2.54226 8.63614 2.76259 8.19568 2.8626C8.16066 2.87056 8.08464 2.78647 8.21 2.72864C8.33456 2.67112 8.54322 2.6367 8.71685 2.55603C8.75746 2.53697 8.97432 2.36613 9.00693 2.34989C9.25806 2.2231 9.33859 2.36135 9.35587 2.36484C9.54373 2.40321 9.81164 2.21433 9.89182 2.18361C10.2479 2.04519 10.5642 1.98041 10.8677 1.87586C11.0634 1.80867 11.0602 1.70481 11.22 1.66762C11.7532 1.54571 11.9651 1.64219 12.446 1.4154C12.5476 1.36812 12.4199 1.2787 12.8253 1.28896C12.8497 1.28964 13.1541 1.31413 13.3134 1.2365C13.3336 1.22664 13.3276 1.19483 13.3552 1.18747C13.5391 1.13923 13.6692 1.14504 13.8703 1.10424C14.0735 1.06322 14.3207 1.01415 14.555 1.00208C14.7007 0.99402 14.8849 1.03972 14.9554 1.04959C15.1496 1.07797 15.352 0.998909 15.4737 1.04678C15.5955 1.09532 15.3661 1.17865 15.6764 1.20599C15.6865 1.12177 15.7122 1.03518 15.7309 0.95049C16.4239 0.945396 17.1534 1.04499 17.8068 1.22479C17.8886 1.24439 17.8159 1.17994 17.9041 1.19986C18.2751 1.28364 18.5921 1.39277 18.9803 1.47278C19.2807 1.53451 19.6198 1.56677 19.9356 1.63206C20.104 1.77238 20.575 1.85632 20.91 1.95486C21.0267 1.98908 21.0129 2.01204 21.0943 2.04278C21.4016 2.15896 21.2767 2.03692 21.3669 2.04804C21.7548 2.09876 21.7332 2.29133 22.168 2.42277C22.1911 2.42946 22.5039 2.4239 22.545 2.43162C22.8039 2.47624 22.5741 2.47893 22.7252 2.5396C22.9999 2.6517 23.1843 2.74621 23.518 2.85272C23.6156 2.88367 23.8673 2.92322 24.0264 3.05425C24.0473 3.07139 24.0196 3.09573 24.0377 3.1066C24.3646 3.30285 24.4203 3.21617 24.632 3.29111C24.8469 3.36814 25.0982 3.61415 25.141 3.66928C25.2586 3.81317 25.0144 3.61375 25.0022 3.61357C24.8711 3.60627 25.0848 3.72853 25.2337 3.83592C25.1981 3.93766 25.4128 4.07403 25.3875 3.94511C25.3846 3.93096 25.2619 3.86046 25.2337 3.83592C25.4236 3.83957 25.6651 3.98556 25.8694 4.24008C25.963 4.35821 25.8227 4.32489 26.197 4.55866C26.3682 4.6662 26.3427 4.56115 26.5012 4.64738C26.8594 4.84179 27.2507 5.20352 27.5925 5.44577C27.7172 5.53415 27.6217 5.41355 27.7075 5.47287C27.9347 5.63028 28.1097 5.80245 28.3371 5.96418C28.3577 5.97875 28.3353 5.90817 28.4031 5.96166C28.9193 6.36936 29.3363 6.76469 29.8338 7.23706C30.0749 7.46436 30.51 7.86839 30.7418 8.12046C31.1469 8.56171 31.5881 9.11746 31.9246 9.5289C32.1387 9.80188 32.125 9.71985 32.2312 9.8255C32.4374 10.0317 32.5988 10.5137 32.6146 10.5774C32.6161 10.5799 32.4653 10.3311 32.5229 10.4765C32.5288 10.5772 32.6126 10.5743 32.6146 10.5774C32.629 10.6187 32.8836 11.1345 32.9372 11.2347C32.9678 11.2889 32.9881 11.2408 33.0034 11.2696C33.3627 11.9484 33.6532 12.6623 33.8847 13.4019C33.8883 13.415 33.8403 13.4096 33.8493 13.4404C33.9733 13.8708 34.1075 14.128 34.2405 14.4761C34.3727 14.8238 34.4349 15.1115 34.414 15.3435C34.4894 15.611 34.5419 16.0109 34.565 16.2427C34.5878 16.4716 34.676 16.4909 34.6814 16.5105C34.8386 17.1244 34.8397 17.5363 34.841 18.178C34.8447 18.4896 34.8625 19.1007 34.8722 19.4344C34.8802 19.6985 34.8601 19.8569 34.8722 20.0998C34.8738 20.1327 34.9117 20.0996 34.9131 20.1096C34.9576 20.3806 34.8654 20.2502 34.8487 20.3061C34.7877 20.5084 34.7551 20.6334 34.7811 20.9801C34.7871 21.0599 34.9187 21.294 34.9253 21.4395C34.9338 21.629 34.8866 21.5574 34.8966 21.7553C34.8974 21.7722 34.9269 21.7692 34.9246 21.8914C34.9121 22.4647 34.9033 23.053 34.8893 23.6802C34.8841 23.7666 34.9386 23.6571 34.9305 23.7836C34.8867 24.3991 34.7274 25.0036 34.5373 25.5238C34.49 25.6514 34.4852 25.5601 34.4668 25.5851C34.3549 25.7385 34.349 26.0051 34.3357 26.0449C34.0209 26.9998 33.6238 27.6526 33.1912 28.5622C33.1685 28.6112 33.0494 29.0283 32.8892 29.1545C32.8786 29.1629 32.7178 29.2876 32.6853 29.4563C32.6831 29.4671 32.7769 29.3858 32.6728 29.5605C32.5692 29.7342 32.4288 30.0309 32.2481 30.2441C32.1904 30.3127 32.014 30.4508 31.9326 30.7043C31.9269 30.7227 31.8359 31.1418 31.673 31.211C31.6456 31.2231 31.5741 31.141 31.4472 31.4369C31.4236 31.4925 31.5034 31.413 31.4287 31.5546C31.3169 31.767 31.1179 32.0188 30.9735 32.2943C30.9503 32.3405 30.868 32.5709 30.7089 32.6811C30.6842 32.6981 30.691 32.634 30.6273 32.7061C30.3232 33.0493 30.0052 33.4198 29.6295 33.7101C29.4965 33.8118 29.5259 33.7136 29.3817 33.8107C29.2388 33.9077 28.9488 34.0984 28.8102 34.2164C28.6717 34.3347 28.8888 34.308 28.658 34.4564C27.6389 35.0973 26.5129 35.3707 25.4602 35.7185C25.3022 35.7701 25.4434 35.7568 25.2127 35.8353C24.3494 36.1555 22.7559 36.5024 21.9596 36.5214C21.3187 36.5434 22.1097 36.4067 21.6253 36.4408C21.3915 36.4566 21.1495 36.5849 21.0929 36.5933C20.5438 36.6758 20.1568 36.6516 19.6605 36.6867C19.5583 36.6937 19.6604 36.7325 19.5732 36.7379C19.2747 36.7565 18.96 36.7447 18.6758 36.7515C18.5479 36.7545 18.5718 36.7869 18.4537 36.7852C18.1727 36.7811 17.9235 36.7661 17.6498 36.7317C17.6249 36.7285 17.7939 36.6903 17.586 36.6858C17.2504 36.6783 16.8342 36.6367 16.4475 36.6522C16.3327 36.6568 16.3247 36.7315 16.081 36.6685C16.0299 36.6552 16.1002 36.5694 15.8098 36.6319C15.7612 36.6426 15.2733 36.7195 15.0417 36.6361C14.9806 36.6143 14.8269 36.5303 14.689 36.5318C14.6702 36.5323 14.7419 36.5777 14.6279 36.5733C14.2258 36.5569 13.8068 36.5177 13.3944 36.4923C13.2844 36.4855 13.444 36.542 13.2801 36.5306C12.8264 36.4983 12.2756 36.4329 11.8263 36.3656C11.6535 36.336 11.7783 36.319 11.7659 36.3136C11.5755 36.2234 11.4403 36.2774 11.372 36.2679C10.9572 36.2064 10.6694 36.0773 10.3127 35.966C10.2147 35.9349 10.2706 35.9958 10.2501 35.9923C10.0375 35.9531 10.2101 35.9401 10.0868 35.8871C9.74097 35.7372 9.35626 35.5809 9.01122 35.4322C8.88455 35.3775 9.00749 35.4825 8.89395 35.4326C8.22204 35.1376 7.54931 34.789 6.93757 34.4379C6.82233 34.3716 6.9125 34.3797 6.89172 34.3597C6.75005 34.2217 6.46698 34.1571 6.40864 34.1343C6.13524 34.0263 6.05357 33.9475 5.82379 33.8336C4.59386 33.2779 3.45778 31.9529 2.85824 30.9105C2.06489 29.5599 1.47496 28.4641 1.05281 26.993C1.02633 26.8996 1.00761 27.0065 0.984413 26.9258C0.687651 25.8806 0.585963 24.8153 0.554458 23.7426C0.552054 23.6546 0.509758 23.7821 0.504775 23.6406C0.494914 23.3545 0.500548 22.9859 0.519299 22.7041C0.528487 22.5662 0.563014 22.7514 0.571591 22.613C0.591886 22.2864 0.60631 21.9266 0.614758 21.5936C0.618643 21.446 0.562919 21.6665 0.571699 21.475C0.631808 20.1969 0.753664 18.9359 1.07983 17.6674C1.10255 17.5799 1.20825 17.5221 1.23329 17.3358C1.21172 17.3163 1.18242 17.3102 1.15736 17.298C1.56403 15.4586 2.37115 13.7034 3.51942 12.1973C3.56761 12.1335 3.44548 12.2147 3.53911 12.0911C4.08232 11.3778 4.65846 10.7276 5.33106 10.1246C5.39778 10.065 5.42662 10.1557 5.60399 9.96371C5.63415 9.93026 5.9132 9.64541 5.97382 9.56306C5.98192 9.55156 5.90243 9.57187 5.99352 9.48407C6.53035 8.96832 7.1067 8.46305 7.6716 7.9912C7.76351 7.91452 7.69737 8.03047 7.7621 7.977C8.21916 7.59936 8.68521 7.14168 9.13304 6.78992C9.43728 6.55042 9.37701 6.70356 9.57582 6.6209C9.60364 6.6095 9.7799 6.45132 9.81749 6.47385C9.9121 6.5306 9.9047 6.69393 10.0156 6.74526C10.0391 6.75679 10.2592 6.5202 10.1579 6.6922C10.1506 6.70428 9.9922 6.87506 9.96378 6.92767C9.94382 6.96438 10.0252 6.94823 9.97744 7.01536C9.92974 7.08241 9.84043 7.11503 9.75675 7.21851C9.67059 7.32447 9.74641 7.32175 9.55151 7.50483ZM34.6339 17.2841C34.6157 17.5019 34.7676 17.521 34.708 17.2906C34.7049 17.2794 34.6347 17.2727 34.6339 17.2841ZM17.0991 1.18804C17.367 1.29927 17.5733 1.25399 17.3895 1.15946C17.2033 1.06738 17.0161 1.15492 17.0991 1.18804ZM14.2196 1.24623C14.5472 1.26026 14.5775 1.044 14.233 1.12658C14.2134 1.13136 14.2007 1.24548 14.2196 1.24623ZM8.89305 7.26371C8.89642 7.26338 9.0228 7.15269 9.02458 7.14843C9.05952 7.0533 8.8068 7.27472 8.89305 7.26371ZM11.4427 1.82552C11.5489 1.82865 11.8212 1.73022 11.6921 1.72409C11.588 1.71893 11.3132 1.82063 11.4427 1.82552ZM33.0449 28.0026C33.0415 28.0046 32.9844 28.1123 32.9967 28.1158C33.0366 28.127 33.1034 27.9702 33.0449 28.0026ZM6.85003 3.24566C7.52358 3.01246 7.98215 3.04128 7.25094 3.276C7.11792 3.31916 7.51596 3.12348 7.34337 3.16744C7.02556 3.24882 6.86213 3.42443 6.52651 3.48463C6.46593 3.49519 6.81239 3.25802 6.85112 3.245C6.85076 3.24522 6.85039 3.24544 6.85003 3.24566ZM34.4678 17.4236C34.4665 17.427 34.4794 17.5969 34.4813 17.6005C34.5363 17.6891 34.5108 17.3473 34.4678 17.4236ZM28.8933 33.6791C28.8844 33.6832 28.5622 33.8971 28.5526 33.905C28.4245 34.0837 29.0847 33.6479 28.8933 33.6791ZM29.5376 7.52292C29.372 7.43158 29.2081 7.28829 29.1396 7.14606C29.2728 7.27032 29.4069 7.39498 29.5376 7.52292Z" fill="black"/>
</svg>
